<svg xmlns="http://www.w3.org/2000/svg" version="1.1" xmlns:xlink="http://www.w3.org/1999/xlink" xmlns:svgjs="http://svgjs.com/svgjs" width="1000" height="1000"><rect width="1000" height="1000" rx="500" ry="500" fill="#ffd4c2"></rect><g transform="matrix(8.333333333333334,0,0,8.333333333333334,100.00146865844727,88.00033569335938)"><svg xmlns="http://www.w3.org/2000/svg" version="1.1" xmlns:xlink="http://www.w3.org/1999/xlink" xmlns:svgjs="http://svgjs.com/svgjs" width="96" height="120"><svg xmlns="http://www.w3.org/2000/svg" viewBox="0 0 96 120" x="0px" y="0px"><title>Artboard 34</title><g><path d="M41.072,40,39.34,39a1.9987,1.9987,0,0,0-2.732.732l-3,5.196,24.248,14,3-5.196A1.9988,1.9988,0,0,0,60.124,51l-1.732-1,20.9994-36.372,2-3.464a1.9988,1.9988,0,0,0-.7321-2.732l-6.928-4a1.9988,1.9988,0,0,0-2.732.7321l-2,3.464a1.9989,1.9989,0,0,0,.732,2.732l5.196,3L54.928,48l-3.464-2,15-25.98,2-3.464a1.9988,1.9988,0,0,0-.732-2.7319l-6.928-4a1.9988,1.9988,0,0,0-2.732.732l-2,3.464a1.9988,1.9988,0,0,0,.732,2.732l5.196,3L48,44l-3.464-2,9-15.588,2-3.464a1.9988,1.9988,0,0,0-.732-2.732l-6.9281-4a1.9988,1.9988,0,0,0-2.7319.732l-2,3.464a1.9988,1.9988,0,0,0,.7321,2.732l5.196,3Z"></path><path d="M55.5882,66.8559l-1.732-1,2-3.464-24.248-14-17,29.444a1.9988,1.9988,0,0,0,.7321,2.732l20.784,12a1.9988,1.9988,0,0,0,2.732-.7321l3-5.196,1.732,1a6.0065,6.0065,0,0,0,8.1959-2.1961l6-10.392A6.0063,6.0063,0,0,0,55.5882,66.8559Zm-7.2677,16.588a2.0026,2.0026,0,0,1-2.732.732l-1.732-1,8-13.856,1.732,1a2.0025,2.0025,0,0,1,.732,2.7319Z"></path></g></svg></svg></g></svg>